<?xml version="1.0" encoding="UTF-8"?>
<svg xmlns="http://www.w3.org/2000/svg" xmlns:xlink="http://www.w3.org/1999/xlink" width="268.224pt" height="336.246pt" viewBox="0 0 268.224 336.246" version="1.1">
<defs>
<clipPath id="clip1">
  <path d="M 0 0 L 268.222656 0 L 268.222656 336.246094 L 0 336.246094 Z M 0 0 "/>
</clipPath>
</defs>
<g id="surface1">
<g clip-path="url(#clip1)" clip-rule="nonzero">
<path style="fill:none;stroke-width:1;stroke-linecap:butt;stroke-linejoin:miter;stroke:rgb(13.729858%,12.159729%,12.548828%);stroke-opacity:1;stroke-miterlimit:4;" d="M 550.023438 -94.156344 L -291.867188 -94.156344 L -291.867188 501.117094 L 550.023438 501.117094 Z M 550.023438 -94.156344 " transform="matrix(1,0,0,-1,0,336.246)"/>
<path style=" stroke:none;fill-rule:evenodd;fill:rgb(40.510559%,15.028381%,41.687012%);fill-opacity:1;" d="M 127.324219 14.046875 C 103.917969 24.367188 67.046875 27.375 37.148438 21.335938 C 27.785156 19.445312 19.273438 16.917969 11.878906 13.488281 C 10.890625 13.011719 9.800781 12.207031 8.574219 12.316406 C 8.230469 48.683594 9.160156 86.402344 9.160156 121.4375 C 9.160156 139.660156 8.285156 158.28125 9 175.625 C 9.800781 192.890625 11.746094 209.277344 16.476562 223.375 C 21.136719 237.207031 27.359375 249.097656 35.128906 259.929688 C 46.726562 276.152344 60.769531 289.613281 78.539062 299.242188 C 84.527344 302.4375 90.828125 305.28125 97.214844 308.234375 C 109.664062 314.0625 122.113281 320.148438 134.484375 326.191406 C 146.820312 320.046875 159.355469 314.222656 171.644531 308.234375 C 177.976562 305.175781 184.332031 302.566406 190.265625 299.351562 C 202.078125 293.070312 212.136719 284.640625 221.074219 275.167969 C 234.425781 261.097656 245.332031 243.59375 251.933594 223.242188 C 261.1875 194.644531 259.273438 158.4375 259.273438 121.832031 C 259.273438 84.96875 259.382812 48.652344 259.644531 12.316406 C 258.527344 12.316406 257.4375 13.011719 256.375 13.488281 C 248.683594 16.867188 240.390625 19.6875 231.15625 21.492188 C 209.421875 25.722656 182.769531 25.085938 162.308594 20.617188 C 151.773438 18.328125 142.441406 14.789062 134.191406 10.589844 C 132.488281 11.941406 129.964844 12.875 127.324219 14.046875 M 0.117188 0 C 17.140625 9.925781 39.542969 16.917969 66.378906 17.160156 C 93.886719 17.476562 117.21875 12.105469 134.058594 1.4375 C 151.03125 12.050781 174.625 17.585938 201.867188 17.160156 C 228.203125 16.8125 251.398438 9.925781 268.15625 0.132812 C 268.476562 39.660156 267.546875 77.355469 267.546875 116.699219 C 267.546875 155.78125 269.648438 196.347656 259.644531 226.226562 C 254.777344 240.882812 247.4375 253.171875 239.160156 264.6875 C 231.019531 276.101562 220.914062 286.105469 210.0625 294.347656 C 198.777344 302.941406 185.742188 309.03125 172.5 315.707031 C 161.140625 321.429688 149.726562 327.335938 138.660156 333.347656 C 137.117188 334.199219 135.304688 334.757812 134.191406 336.246094 C 128.226562 332.230469 121.742188 329.007812 115.304688 325.632812 C 108.816406 322.3125 102.269531 318.902344 95.777344 315.574219 C 89.074219 312.148438 82.367188 309.21875 76.011719 305.839844 C 69.652344 302.488281 63.878906 298.578125 58.214844 294.191406 C 35.945312 277.191406 18.765625 255.164062 8.574219 225.847656 C 3.363281 210.714844 1.871094 193.398438 0.96875 174.640625 C 0.117188 156.148438 0.570312 136.46875 0.570312 117.289062 C 0.570312 78.210938 0.015625 39.796875 0.015625 0.425781 C -0.0117188 0.214844 -0.0117188 0 0.117188 0 "/>
</g>
<path style=" stroke:none;fill-rule:evenodd;fill:rgb(40.510559%,15.028381%,41.687012%);fill-opacity:1;" d="M 136.105469 32.242188 C 135.628906 31.019531 135.148438 28.304688 133.765625 28.546875 C 131.347656 33.546875 129.722656 39.34375 127.59375 44.746094 C 128.816406 44.800781 131.132812 44.691406 132.328125 44.746094 C 131.421875 39.929688 136.902344 39.640625 135.785156 44.746094 L 140.679688 44.746094 C 139.296875 41.046875 137.546875 36.261719 136.105469 32.242188 M 137.089844 25.511719 C 148.605469 26.761719 157.257812 32.777344 162.46875 41.3125 C 163.160156 42.429688 164.304688 44.238281 164.199219 45.117188 C 164.039062 46.046875 163.34375 46.792969 162.46875 46.738281 C 161.324219 46.6875 161.003906 45.117188 160.152344 43.707031 C 155.765625 36.019531 148.664062 30.726562 138.5 28.941406 C 138.980469 31.285156 140.042969 33.546875 140.949219 35.96875 C 141.800781 38.359375 142.703125 40.835938 143.527344 43.175781 C 143.929688 43.601562 143.476562 44.15625 143.527344 44.746094 C 145.363281 44.613281 147.414062 44.691406 147.117188 46.738281 C 146.71875 49.375 138.847656 47.378906 135.921875 48.042969 C 135.601562 50.0625 135.867188 52.75 135.785156 55.015625 C 137.386719 55.96875 144.988281 54.214844 146.53125 55.332031 C 146.984375 55.625 147.171875 56.558594 147.117188 57.035156 C 146.695312 59.910156 138.980469 57.566406 135.921875 58.308594 C 135.46875 60.707031 136.578125 64.058594 134.191406 64.21875 C 131.902344 64.347656 132.542969 61.183594 132.488281 58.445312 C 129.613281 57.40625 121.742188 59.964844 121.152344 57.195312 C 120.355469 53.257812 129.589844 56.101562 132.328125 55.015625 C 132.597656 53.070312 132.597656 50.117188 132.328125 48.148438 C 129.773438 47.191406 121.6875 49.480469 121.152344 46.875 C 120.730469 44.847656 122.753906 44.53125 124.613281 44.746094 C 125.015625 44.371094 124.402344 43.894531 124.613281 43.308594 C 126.472656 38.679688 127.992188 33.707031 129.933594 29.101562 C 117.640625 30.777344 109.878906 38.226562 105.992188 48.707031 C 107.324219 48.652344 109.34375 47.882812 112 47.429688 C 114.824219 46.953125 120.546875 45.648438 118.871094 49.589844 C 116.554688 50.332031 113.921875 50.25 111.527344 50.757812 C 109.183594 51.207031 107.058594 52.03125 105.089844 52.75 C 104.714844 53.472656 104.609375 54.480469 104.503906 55.488281 C 106.578125 55.175781 108.757812 54.269531 111.527344 53.761719 C 113.515625 53.417969 119.457031 51.984375 118.871094 55.195312 C 118.601562 56.609375 116.902344 56.425781 115.570312 56.5 C 111.734375 56.742188 106.925781 57.992188 104.503906 59.351562 C 104.394531 59.855469 104.503906 61 104.660156 61.636719 C 107.003906 61.023438 108.703125 60.519531 111.6875 60.039062 C 113.546875 59.800781 118.015625 58.550781 118.441406 60.625 C 119.054688 63.605469 113.8125 62.753906 111.289062 63.207031 C 108.546875 63.714844 106.898438 64.484375 105.25 65.039062 C 105.859375 66.453125 105.886719 68.261719 104.503906 68.5 C 101.632812 69.136719 101.308594 62.382812 101.203125 59.640625 C 101.097656 55.4375 101.679688 51.714844 102.535156 48.867188 C 106.316406 35.886719 116.421875 27.585938 131.210938 25.378906 C 132.277344 23.808594 132.277344 20.671875 134.351562 20.882812 C 136.1875 21.070312 136.003906 24.128906 137.089844 25.511719 "/>
<path style=" stroke:none;fill-rule:evenodd;fill:rgb(40.510559%,15.028381%,41.687012%);fill-opacity:1;" d="M 30.820312 85.441406 L 30.820312 85.84375 C 32.09375 85.710938 32.390625 87.253906 33.425781 86.882812 C 33.105469 85.898438 31.882812 85.175781 30.820312 85.441406 M 57.496094 77.121094 C 56.9375 77.382812 56.355469 77.570312 56.085938 78.128906 C 55.875 79.089844 56.457031 80.816406 55.636719 81.136719 C 54.253906 80.148438 53.21875 80.894531 52.3125 81.878906 C 51.617188 81.746094 51.40625 81.082031 50.339844 81.296875 C 50.234375 81.773438 49.8125 83.53125 50.609375 83.585938 C 51.40625 83.425781 50.183594 82.09375 51.195312 82.09375 C 51.460938 82.789062 51.9375 83.214844 52.3125 83.742188 C 52.257812 84.808594 51.882812 86.960938 52.46875 87.761719 C 54.175781 87.253906 52.546875 83.425781 54.652344 83.261719 C 55.339844 83.664062 55.152344 84.964844 55.214844 86 C 55.820312 86.269531 56.566406 87.203125 57.632812 87.308594 C 58.800781 87.4375 60.898438 87.042969 61.355469 86.164062 C 60.609375 85.578125 59.386719 85.550781 58.800781 84.859375 C 58.5625 84.703125 58.640625 84.113281 58.640625 83.742188 C 57.234375 82.789062 56.566406 80.390625 57.207031 78.265625 C 57.417969 77.570312 58.851562 76.585938 57.632812 75.8125 C 57.417969 76.054688 57.523438 76.667969 57.496094 77.121094 M 45.316406 75.390625 C 45.421875 75.921875 46.511719 75.65625 46.882812 75.550781 C 46.882812 75.363281 46.9375 75.230469 47.046875 75.125 C 46.832031 74.78125 46.402344 74.566406 46.007812 74.402344 C 46.164062 75.125 45.261719 74.78125 45.316406 75.390625 M 26.929688 75.015625 C 27.730469 74.351562 27.996094 72.78125 27.519531 71.667969 C 26.078125 71.667969 25.8125 74.433594 26.929688 75.015625 M 33.847656 72.386719 C 33.214844 72.4375 33.472656 71.609375 32.835938 71.667969 C 31.984375 71.691406 31.984375 72.566406 31.238281 72.675781 C 30.949219 72.566406 30.761719 72.359375 30.230469 72.386719 C 29.910156 72.675781 29.433594 72.835938 29.539062 73.5 C 30.28125 73.179688 30.5 73.316406 31.109375 73.664062 C 31.347656 73.394531 31.265625 72.835938 31.828125 72.835938 C 31.71875 74.960938 30.414062 77.171875 27.96875 77.382812 C 27.730469 78.527344 26.984375 79.089844 26.242188 79.699219 C 25.65625 82.332031 26.402344 84.753906 28.957031 84.753906 C 29.140625 84.273438 29.085938 83.53125 29.113281 82.839844 C 28.371094 82.144531 27.675781 81.429688 27.96875 79.699219 C 28.371094 79.351562 28.871094 79.089844 29.675781 79.117188 C 30.761719 78.101562 31.71875 76.878906 32.414062 75.390625 C 31.9375 73.789062 33.585938 72.675781 34.273438 73.980469 C 34.273438 74.402344 33.824219 75.152344 34.539062 75.125 C 35.128906 74.960938 34.539062 74.539062 34.539062 74.113281 C 35.257812 73.179688 36.828125 73.128906 37.277344 71.957031 C 36.191406 70.257812 35.019531 71.90625 33.847656 72.386719 M 50.023438 69.644531 C 51.195312 69.855469 53.53125 70.148438 53.804688 68.980469 C 53.21875 67.492188 49.8125 67.570312 50.023438 69.644531 M 26.242188 68.980469 C 27.144531 69.484375 29.273438 69.644531 29.964844 68.816406 C 29.460938 67.832031 29.460938 66.984375 29.539062 66.105469 C 28.105469 66.667969 26.71875 67.410156 26.242188 68.980469 M 49.332031 67.492188 C 49.945312 66.773438 49.648438 64.933594 48.589844 64.933594 C 48.160156 65.519531 47.949219 67.808594 49.332031 67.492188 M 41.882812 61.636719 C 41.351562 62.460938 41.933594 63.84375 42.734375 64.21875 C 44.066406 63.632812 43.636719 61.394531 41.882812 61.636719 M 34.859375 62.648438 C 34.21875 62.648438 34.355469 61.875 33.585938 62.0625 C 33.691406 63.152344 32.675781 63.152344 32.414062 63.761719 C 32.570312 64.539062 33.585938 64.539062 33.847656 65.226562 C 36.113281 65.175781 36.722656 63.523438 38.691406 63.207031 C 38.316406 60.546875 36.296875 61.769531 34.859375 62.648438 M 61.484375 62.199219 C 61.804688 62.96875 63.003906 62.808594 63.214844 63.632812 C 62.789062 65.226562 64.121094 66.027344 64.390625 67.386719 C 63.535156 68.605469 62.203125 67.492188 61.804688 66.667969 C 61.171875 66.773438 60.769531 67.09375 60.769531 67.808594 C 64.066406 68.019531 62.261719 71.851562 60.214844 72.515625 C 59.59375 72.78125 58.746094 72.515625 58.054688 72.675781 C 57.257812 72.890625 56.507812 73.789062 55.636719 74.113281 C 54.277344 74.589844 53.027344 74.191406 52.203125 74.855469 C 51.78125 76.535156 51.992188 78.609375 53.21875 78.585938 C 54.4375 78.527344 54.382812 76.105469 55.636719 75.710938 C 57.417969 76 57.234375 74.589844 58.214844 74.273438 C 58.746094 74.058594 59.359375 74.433594 60.054688 74.273438 C 62.046875 73.710938 62.578125 71.132812 63.804688 69.644531 C 67.046875 70.046875 67.84375 67.222656 67.953125 64.933594 C 66.144531 65.285156 63.964844 65.519531 63.644531 63.953125 C 63.480469 62.808594 64.519531 62.304688 64.816406 61.210938 C 63.964844 59.746094 61.703125 60.890625 61.484375 62.199219 M 74.976562 60.945312 C 76.042969 60.335938 75.453125 58.101562 74.285156 58.046875 C 73.777344 58.871094 73.777344 60.917969 74.976562 60.945312 M 58.484375 51.738281 C 57.3125 52.195312 56.644531 53.257812 56.355469 54.5625 C 57.3125 54.960938 57.496094 53.601562 58.320312 53.472656 C 59.304688 54 59.28125 55.515625 60.34375 55.890625 C 60.609375 56.316406 61.886719 55.730469 61.9375 56.316406 C 61.9375 57.089844 60.714844 57.089844 59.917969 57.488281 C 59.066406 57.914062 57.496094 59.164062 56.191406 59.960938 C 53.910156 61.261719 50.929688 62.96875 54.332031 64.484375 C 54.703125 64.191406 54.308594 63.472656 54.492188 63.125 C 54.757812 62.4375 57.574219 60.4375 57.898438 60.386719 C 58.484375 60.28125 59.144531 60.707031 59.652344 60.625 C 61.140625 60.4375 61.484375 59 62.789062 58.445312 C 63.613281 58.632812 64.441406 58.789062 65.5625 58.765625 C 66.859375 59.214844 66.175781 61.691406 67.683594 61.953125 C 68.378906 61 67.84375 59.667969 68.699219 58.765625 C 68.5625 57.835938 67.714844 57.589844 67.816406 56.5 C 68.058594 55.945312 68.699219 55.808594 69.257812 55.597656 C 70.613281 56.582031 70.347656 59.1875 71.679688 60.171875 C 72.847656 59.457031 73.140625 56.851562 72.421875 55.597656 C 71.78125 54.5625 69.816406 54.164062 69.386719 53.367188 C 66.039062 53.390625 63.480469 54.214844 60.929688 55.011719 C 59.917969 54.164062 59.488281 52.671875 58.484375 51.738281 M 70.957031 49.585938 C 70.21875 49.507812 69.925781 50.332031 69.972656 50.863281 C 70.082031 51.847656 71.835938 52.9375 72.847656 52.886719 C 72.523438 52.273438 71.679688 49.691406 70.957031 49.585938 M 61.804688 51.019531 C 61.835938 51.078125 62.101562 51.3125 62.101562 51.394531 C 62.632812 51.738281 63.003906 51.078125 63.644531 51.019531 C 64.816406 50.917969 65.664062 51.582031 66.382812 51.582031 C 67.074219 50.917969 66.460938 49.691406 65.664062 49.585938 C 64.707031 51.125 61.332031 48.335938 61.804688 51.019531 M 61.804688 44.320312 C 60.503906 45.328125 58 46.339844 58.800781 48.46875 C 58.90625 48.496094 59.066406 48.46875 59.066406 48.578125 C 60.714844 48.097656 61.171875 46.339844 62.367188 45.304688 C 63.378906 44.453125 65.238281 43.894531 65.078125 41.953125 C 63.429688 41.339844 62.847656 43.441406 61.804688 44.320312 M 52.789062 43.839844 C 52.949219 44.050781 53.371094 44.023438 53.804688 44.023438 C 54.175781 43.171875 54.308594 42.035156 54.757812 41.3125 C 53.507812 40.914062 52.683594 42.832031 52.789062 43.839844 M 58.054688 44.453125 C 59.488281 44.800781 60.027344 43.066406 60.664062 42.136719 C 60.292969 41.449219 60.503906 40.140625 59.488281 40.117188 C 59.625 42.164062 58.640625 43.09375 58.054688 44.453125 M 66.542969 37.960938 C 67.257812 38.519531 66.304688 39.394531 66.671875 39.957031 C 68.75 39.554688 71.328125 41.152344 71.542969 42.269531 C 71.835938 43.707031 70.238281 45.25 70.664062 47.136719 C 74.175781 49.375 75.027344 54.269531 79.019531 56.074219 C 80.746094 59.347656 81.890625 64.296875 81.148438 68.816406 C 80.5625 72.25 77.15625 72.621094 77.847656 77.121094 C 78.167969 79.058594 79.339844 82.96875 80.71875 83.585938 C 81.625 83.984375 82.851562 83.503906 83.753906 84.140625 C 84.472656 85.019531 84.125 86.933594 83.59375 87.761719 C 80.828125 88.265625 79.816406 91.191406 76.414062 90.046875 C 75.136719 89.570312 72.902344 88.101562 72.261719 87.015625 C 71.835938 86.324219 71.890625 85.339844 71.542969 84.59375 C 70.824219 82.96875 69.546875 81.988281 68.804688 80.84375 C 66.730469 81.480469 60.34375 80.390625 61.355469 83.742188 C 61.835938 85.234375 66.886719 84.488281 65.238281 88.316406 C 64.652344 89.648438 60.292969 91.511719 58.640625 91.886719 C 58.054688 91.988281 56.992188 92.066406 56.621094 92.015625 C 56.085938 91.964844 55.609375 91.457031 54.917969 91.296875 C 53.53125 91.03125 51.671875 91.644531 50.183594 91.296875 C 49.277344 91.136719 46.777344 89.355469 45.871094 88.582031 C 45.285156 88.050781 44.117188 86.617188 43.902344 86 C 43.238281 84.433594 43.667969 83.132812 41.984375 82.414062 C 41.242188 82.09375 40.289062 82.226562 39.4375 81.988281 C 37.894531 81.617188 36.242188 80.363281 34.996094 81.296875 C 33.425781 83.023438 35.898438 83.769531 36.695312 85.289062 C 37.464844 86.722656 36.988281 87.789062 37.148438 89.863281 C 36.640625 90.550781 35.550781 91.800781 34.273438 92.015625 C 32.542969 92.335938 30.203125 91.03125 27.785156 90.449219 C 26.214844 90.046875 23.847656 90.046875 23.527344 88.453125 C 23.316406 87.4375 24.324219 86.855469 24.507812 86 C 24.804688 84.859375 24.164062 83.957031 24.941406 83.023438 C 23.847656 81.347656 24.324219 78.738281 24.214844 75.710938 C 24.113281 72.410156 24.164062 70.175781 24.941406 67.808594 C 25.230469 66.957031 25.28125 65.972656 25.550781 65.496094 C 25.976562 64.484375 28.929688 62.117188 30.125 61.503906 C 32.835938 59.984375 37.359375 58.789062 42.152344 59.480469 C 43.160156 59.589844 44.066406 60.4375 45.019531 60.625 C 46.832031 60.945312 49.277344 60.4375 51.195312 60.625 C 51.78125 60.28125 52.257812 59.910156 52.632812 59.347656 C 52.789062 56.238281 51.035156 55.011719 50.183594 52.886719 C 50.582031 49.746094 49.648438 46.179688 50.765625 43.171875 C 51.058594 42.324219 52.46875 39.929688 53.21875 39.105469 C 53.929688 38.28125 55.449219 37.109375 56.355469 36.953125 C 58 36.660156 60.769531 37.589844 62.367188 38.121094 C 63.269531 37.480469 65.289062 37.480469 66.542969 37.960938 "/>
<path style=" stroke:none;fill-rule:evenodd;fill:rgb(40.510559%,15.028381%,41.687012%);fill-opacity:1;" d="M 237.566406 87.015625 C 238.574219 86.722656 239.320312 86.164062 240.035156 85.578125 C 239.214844 85.019531 237.566406 85.820312 237.566406 87.015625 M 213.777344 78.421875 C 213.515625 79.832031 213.777344 80.925781 213.625 82.414062 C 212.878906 83.105469 212.078125 83.632812 212.242188 84.863281 C 211.492188 85.578125 209.953125 85.472656 209.5 86.457031 C 211.339844 87.46875 214.476562 87.546875 215.671875 86 C 215.855469 85.019531 215.4375 83.398438 216.523438 83.261719 C 218.328125 83.632812 216.757812 87.332031 218.546875 87.761719 C 219.050781 86.882812 218.890625 84.59375 218.546875 83.742188 C 219.210938 83.316406 219.210938 82.308594 220.117188 82.09375 C 220.21875 82.574219 219.796875 83.582031 220.382812 83.582031 C 220.964844 83.238281 220.882812 81.773438 220.539062 81.296875 C 219.34375 81.03125 219.34375 81.878906 218.386719 81.878906 C 217.851562 80.46875 216.359375 80.394531 215.058594 81.136719 C 214.582031 80.257812 214.902344 79.351562 214.796875 78.023438 C 213.730469 77.625 213.410156 76.558594 213.039062 75.816406 C 212.507812 77.011719 213.410156 77.785156 213.777344 78.421875 M 223.96875 75.390625 C 224.316406 75.710938 224.902344 75.710938 225.542969 75.710938 C 225.542969 75.46875 225.589844 75.390625 225.695312 75.230469 C 225.167969 74.882812 223.996094 73.980469 223.96875 75.390625 M 244.160156 74.859375 C 244.984375 74.058594 244.691406 71.71875 243.472656 71.667969 C 242.832031 72.621094 243.015625 74.539062 244.160156 74.859375 M 233.574219 72.089844 C 234.261719 72.964844 235.566406 73.289062 236.289062 74.113281 C 236.234375 74.433594 236.027344 74.859375 236.289062 75.121094 C 237.195312 75.046875 236.660156 74.433594 236.582031 73.820312 C 238.734375 72.25 238.46875 76 239.429688 77.382812 C 240.0625 78.320312 240.863281 78.421875 241.183594 79.117188 C 241.714844 79.222656 242.300781 79.273438 242.777344 79.40625 C 244.003906 81.585938 240.757812 82.574219 242.035156 84.753906 C 245.226562 85.175781 245.707031 79.457031 243.367188 78.582031 C 243.367188 78.105469 243.152344 77.890625 243.046875 77.570312 C 240.652344 77.25 238.949219 74.78125 239.160156 72.835938 C 239.691406 73.902344 240.515625 73.078125 241.449219 73.5 C 241.398438 72.890625 240.972656 72.621094 240.464844 72.386719 C 240.0625 72.410156 239.851562 72.675781 239.429688 72.675781 C 239.054688 72.359375 238.789062 71.851562 238.148438 71.667969 C 237.511719 71.667969 237.671875 72.515625 236.898438 72.386719 C 235.96875 71.609375 234.425781 70.363281 233.574219 72.089844 M 217.238281 69.21875 C 217.71875 69.988281 219.796875 69.910156 220.808594 69.644531 C 221.179688 67.492188 217.34375 67.410156 217.238281 69.21875 M 240.863281 68.980469 C 241.796875 69.589844 243.472656 69.351562 244.613281 69.113281 C 244.242188 67.386719 242.777344 66.691406 241.3125 66.109375 C 241.449219 67.007812 241.3125 67.941406 240.863281 68.980469 M 221.976562 64.933594 C 221.339844 65.308594 220.882812 66.824219 221.550781 67.492188 C 222.964844 67.832031 223.09375 65.121094 221.976562 64.933594 M 228.257812 64.21875 C 228.890625 63.738281 229.53125 62.699219 229.105469 61.636719 C 227.273438 61.367188 226.710938 63.761719 228.257812 64.21875 M 232.140625 63.125 C 234 63.523438 234.800781 65.121094 237.03125 65.230469 C 237.242188 64.484375 238.417969 64.5625 238.574219 63.761719 C 238.148438 63.203125 237.21875 63.152344 237.300781 62.0625 C 236.445312 61.875 236.660156 62.753906 235.859375 62.648438 C 234.480469 61.582031 232.726562 60.785156 232.140625 63.125 M 206.070312 61.210938 C 206.46875 62.199219 207.242188 62.808594 207.320312 64.058594 C 206.707031 65.652344 204.363281 64.988281 202.878906 65.039062 C 203.222656 67.0625 203.621094 70.175781 207.027344 69.539062 C 208.144531 71.265625 208.996094 73.179688 210.800781 74.273438 C 213.304688 73.316406 213.09375 75.816406 215.21875 75.710938 C 216.496094 76.082031 216.441406 78.5 217.640625 78.582031 C 219.050781 78.6875 219.132812 76.109375 218.679688 74.699219 C 217.453125 74.195312 216.359375 74.621094 215.058594 74.113281 C 214.449219 73.871094 213.996094 73.046875 213.355469 72.835938 C 212.398438 72.515625 211.363281 72.890625 210.484375 72.515625 C 209.261719 72.039062 208.300781 70.175781 208.300781 68.660156 C 208.597656 67.96875 209.898438 68.34375 210.0625 67.492188 C 210.007812 66.957031 209.632812 66.773438 209.207031 66.664062 C 208.675781 67.492188 207.265625 68.660156 206.46875 67.222656 C 207.027344 66.027344 207.984375 65.308594 207.773438 63.3125 C 208.144531 62.808594 209.207031 62.96875 209.339844 62.199219 C 209.261719 60.757812 206.867188 59.855469 206.070312 61.210938 M 195.324219 60.171875 C 196.335938 61.953125 197.449219 59.375 196.734375 58.046875 C 195.589844 58.101562 195.480469 59.214844 195.324219 60.171875 M 212.664062 51.738281 C 211.230469 52.378906 211.175781 54.347656 209.792969 55.011719 C 207.398438 54.054688 204.738281 53.417969 201.441406 53.367188 C 201.015625 54.320312 198.671875 54.746094 198.300781 56.074219 C 197.875 57.433594 198.300781 59.269531 198.988281 60.171875 C 200.695312 59.429688 200.851562 53.417969 203.195312 56.742188 C 202.984375 57.589844 202.34375 58.046875 202.152344 58.921875 C 203.113281 59.5625 202.585938 60.945312 203.039062 61.953125 C 204.792969 61.953125 204.019531 59.484375 205.195312 58.921875 C 206.121094 58.710938 207.292969 58.710938 208.195312 58.445312 C 209.574219 59.429688 210.640625 61.261719 213.039062 60.386719 C 214.316406 61.691406 216.710938 62.199219 216.523438 64.484375 C 217.617188 64.484375 218.304688 63.3125 218.199219 62.648438 C 218.089844 61.289062 215.191406 60.171875 213.777344 59.347656 C 212.957031 58.84375 212.289062 58.152344 211.492188 57.75 C 210.535156 57.300781 209.207031 57.355469 209.046875 56.316406 C 209.152344 55.835938 210.007812 56.105469 210.484375 56.074219 C 211.546875 55.570312 211.546875 53.949219 212.664062 53.472656 C 213.410156 53.601562 213.753906 54.878906 214.503906 54.5625 C 214.527344 53.578125 213.625 52.277344 212.664062 51.738281 M 207.027344 50.171875 C 206.363281 50.25 205.589844 49.480469 205.058594 49.585938 C 204.417969 49.746094 203.675781 51.371094 204.738281 51.582031 C 205.378906 51.183594 207.71875 50.652344 208.625 51.582031 C 209.5 51.023438 209.074219 50.039062 208.300781 49.585938 C 207.664062 49.5625 207.742188 50.066406 207.027344 50.171875 M 201.015625 50.597656 C 201.015625 50.25 200.480469 49.507812 199.902344 49.585938 C 199.257812 49.695312 198.140625 52.539062 198.140625 52.886719 C 199.203125 52.964844 201.070312 51.527344 201.015625 50.597656 M 205.753906 41.953125 C 205.855469 44.371094 207.902344 44.503906 209.207031 45.863281 C 210.21875 46.953125 210.484375 48.390625 211.761719 48.578125 C 213.226562 46.820312 210.433594 44.800781 208.914062 44.160156 C 208.253906 43.171875 207.453125 41.5 205.753906 41.953125 M 217.085938 44.027344 C 217.617188 44.078125 217.984375 43.949219 218.199219 43.707031 C 218.015625 42.457031 217.507812 41.472656 216.359375 41.152344 C 216.125 41.953125 217.03125 42.960938 217.085938 44.027344 M 212.933594 44.453125 C 212.984375 43.519531 211.921875 43.335938 211.652344 42.429688 C 211.386719 41.660156 212 40.621094 211.175781 39.953125 C 209.421875 41.339844 210.9375 44.800781 212.933594 44.453125 M 236.027344 81.296875 C 234.640625 80.394531 232.832031 81.667969 231.394531 81.988281 C 229.660156 82.414062 228.121094 82.382812 227.402344 83.875 C 227.082031 84.566406 227.242188 85.339844 226.976562 86 C 225.804688 88.796875 223.09375 89.511719 220.964844 91.296875 C 219.527344 91.566406 217.824219 91.003906 216.097656 91.296875 C 214.925781 91.511719 214.371094 92.257812 212.507812 91.886719 C 209.847656 91.40625 206.199219 89.648438 205.613281 88.15625 C 204.472656 85.289062 207.609375 84.808594 209.5 84.007812 C 210.007812 81.136719 207.929688 81.585938 205.460938 81.296875 C 204.289062 81.136719 202.929688 80.683594 202.289062 80.84375 C 201.652344 81.03125 199.902344 83.238281 199.3125 84.59375 C 198.988281 85.289062 199.046875 86.242188 198.726562 86.882812 C 197.875 88.582031 194.574219 90.417969 192.71875 90.285156 C 190.347656 90.207031 189.949219 88.105469 187.261719 87.761719 C 186.648438 86.5625 186.4375 84.863281 187.261719 84.140625 C 187.925781 83.582031 189.734375 83.875 190.5625 83.261719 C 191.546875 82.574219 193.777344 76.855469 193.007812 74.113281 C 192.503906 72.359375 190.214844 70.816406 189.839844 69.40625 C 189.734375 68.875 189.683594 67.671875 189.683594 66.929688 C 189.683594 63.472656 189.789062 58.765625 191.863281 56.210938 C 192.71875 55.121094 194.257812 54.5625 195.324219 53.472656 C 197.234375 51.394531 197.503906 48.042969 200.324219 47.328125 C 200.246094 45.328125 199.683594 43.921875 199.3125 42.273438 C 200.378906 40.96875 201.492188 39.660156 204.179688 39.953125 C 204.632812 39.320312 203.621094 38.574219 204.3125 37.960938 C 205.460938 37.539062 207.558594 37.429688 208.300781 38.121094 C 209.816406 37.484375 211.546875 37.214844 213.226562 36.953125 C 216.175781 36.496094 217.851562 39.476562 218.945312 41.449219 C 219.742188 42.832031 220.433594 43.65625 220.675781 45.863281 C 220.777344 46.871094 220.699219 48.175781 220.675781 49.480469 C 220.675781 50.621094 220.808594 51.984375 220.675781 52.75 C 220.171875 55.597656 216.070312 58.765625 219.691406 60.625 C 221.578125 60.386719 223.785156 61 225.804688 60.625 C 226.871094 60.441406 227.882812 59.589844 228.546875 59.484375 C 230.703125 59.109375 233.3125 59.269531 235.011719 59.484375 C 239.214844 60.039062 242.515625 62.78125 245.175781 65.230469 C 245.226562 66.902344 246.476562 68.34375 246.769531 70.203125 C 247.191406 73.179688 247.085938 77.890625 246.636719 80.84375 C 246.398438 82.332031 245.867188 83.742188 246.347656 85.84375 C 246.558594 86.800781 247.40625 87.359375 247.328125 88.15625 C 247.191406 90.046875 244.796875 90.046875 242.777344 90.605469 C 239.160156 91.589844 235.328125 93.371094 233.734375 89.753906 C 233.8125 87.621094 233.496094 86.5625 234.320312 85.125 C 235.066406 83.742188 237.242188 83.261719 236.027344 81.296875 "/>
<path style=" stroke:none;fill-rule:evenodd;fill:rgb(40.510559%,15.028381%,41.687012%);fill-opacity:1;" d="M 162.308594 49.027344 C 163.1875 48.894531 163.453125 47.882812 164.621094 48.042969 C 166.433594 48.175781 166.859375 53.070312 167.070312 55.492188 C 167.394531 59.746094 167.015625 71.1875 162.757812 67.386719 C 162.652344 66.453125 162.816406 65.8125 163.03125 65.226562 C 161.003906 64.03125 156.960938 63.125 153.425781 62.78125 C 151.644531 62.648438 149.140625 62.886719 149.832031 60.492188 C 150.394531 58.578125 154.886719 59.800781 156.71875 60.039062 C 159.570312 60.519531 161.21875 61 163.453125 61.636719 C 163.929688 61.261719 163.667969 60.171875 163.902344 59.480469 C 162.230469 58.230469 156.5625 56.742188 152.863281 56.5 C 151.054688 56.371094 149.25 56.582031 149.25 54.773438 C 149.25 53.949219 149.886719 53.710938 150.417969 53.175781 C 155.574219 53.257812 159.753906 54.269531 163.613281 55.597656 C 164.675781 51.984375 159.941406 51.527344 157.277344 50.863281 C 154.621094 50.25 151.90625 50.117188 149.832031 49.882812 C 148.664062 49.296875 148.769531 46.925781 150.550781 46.875 C 153.851562 46.792969 160.152344 48.042969 162.308594 49.027344 "/>
<path style=" stroke:none;fill-rule:evenodd;fill:rgb(40.510559%,15.028381%,41.687012%);fill-opacity:1;" d="M 121.742188 74.855469 C 127.324219 79.726562 140.949219 79.726562 146.53125 74.855469 C 139.882812 72.675781 128.367188 72.675781 121.742188 74.855469 M 108.226562 72.386719 C 110.167969 76.082031 112.90625 78.902344 115.996094 81.429688 C 118.074219 80.683594 120.332031 80.074219 122.75 79.699219 C 121.792969 78.792969 120.59375 78.265625 119.289062 77.25 C 118.339844 76.535156 116.476562 75.46875 116.554688 73.980469 C 116.683594 72.410156 120.039062 71.609375 122.300781 71.105469 C 129.828125 69.429688 138.660156 69.644531 145.84375 71.210938 C 148.078125 71.746094 151.859375 72.332031 151.859375 74.113281 C 151.859375 75.125 150.152344 76.585938 149.25 77.25 C 148.023438 78.265625 146.640625 78.371094 145.84375 79.699219 C 148.503906 79.886719 150.523438 80.738281 152.703125 81.429688 C 155.953125 79.167969 158.394531 76.105469 160.152344 72.386719 C 146.476562 66.667969 122.085938 67.0625 108.226562 72.386719 M 140.523438 89.753906 C 137.328125 85.605469 147.542969 86.03125 148.820312 83.875 C 147.414062 83.15625 145.417969 82.808594 143.527344 82.574219 C 141.585938 82.308594 139.589844 82.09375 137.78125 82.09375 C 137.914062 84.964844 139.191406 89.863281 136.105469 90.742188 C 133.921875 91.296875 127.222656 90.6875 126.90625 89.144531 C 126.234375 85.605469 132.011719 87.917969 134.617188 87.574219 C 135.304688 86.03125 134.695312 83.453125 134.191406 82.09375 C 129.058594 81.667969 124.136719 82.652344 119.878906 83.585938 C 121.152344 85.578125 124.878906 85.074219 125.171875 87.015625 C 125.894531 91.296875 118.496094 86.960938 117.429688 86.269531 C 113.390625 83.957031 110.433594 81.269531 107.53125 77.382812 C 106.394531 75.871094 104.074219 72.941406 104.234375 71.402344 C 104.394531 69.855469 107.773438 68.980469 109.980469 68.390625 C 122.886719 64.910156 137.753906 63.578125 152.121094 66.503906 C 154.0625 66.902344 156.296875 67.648438 158.554688 68.390625 C 160.445312 68.980469 163.957031 69.75 164.199219 71.105469 C 164.492188 72.890625 161.1875 77.089844 160.445312 78.128906 C 157.171875 82.519531 153.796875 85.257812 148.710938 87.574219 C 146.320312 88.636719 143.609375 89.832031 140.523438 89.753906 "/>
<path style=" stroke:none;fill-rule:nonzero;fill:rgb(40.510559%,15.028381%,41.687012%);fill-opacity:1;" d="M 38.851562 174 C 38.851562 173.679688 38.714844 173.285156 38.582031 172.671875 C 38.425781 172.113281 38.292969 171.691406 38.132812 171.53125 C 37.894531 171.15625 37.4375 170.890625 36.722656 170.785156 C 36.027344 170.675781 35.179688 170.597656 34.113281 170.597656 L 18.871094 170.597656 L 18.871094 169.292969 L 35.871094 156.738281 L 25.148438 156.738281 C 23.957031 156.738281 23.050781 156.789062 22.414062 156.949219 C 21.746094 157.085938 21.292969 157.296875 21.023438 157.667969 C 20.8125 157.882812 20.601562 158.363281 20.441406 159.050781 C 20.226562 159.742188 20.121094 160.195312 20.121094 160.410156 L 19.109375 160.410156 L 19.109375 151.921875 L 20.121094 151.921875 C 20.175781 152.1875 20.226562 152.640625 20.441406 153.226562 C 20.601562 153.867188 20.761719 154.238281 20.867188 154.394531 C 21.136719 154.746094 21.558594 155.007812 22.089844 155.089844 C 22.675781 155.222656 23.636719 155.328125 25.015625 155.328125 L 35.234375 155.328125 C 35.65625 155.328125 36.113281 155.222656 36.5625 155.0625 C 37.039062 154.902344 37.359375 154.71875 37.625 154.449219 C 37.945312 154.050781 38.210938 153.574219 38.453125 153.015625 C 38.691406 152.429688 38.796875 151.921875 38.851562 151.523438 L 39.859375 151.523438 L 39.859375 157.484375 L 24.003906 169.136719 L 33.902344 169.136719 C 35.101562 169.136719 36.054688 169.105469 36.695312 168.921875 C 37.359375 168.816406 37.789062 168.546875 38 168.230469 C 38.1875 167.964844 38.371094 167.566406 38.53125 166.925781 C 38.691406 166.285156 38.796875 165.808594 38.851562 165.515625 L 39.859375 165.515625 L 39.859375 174 Z M 38.851562 174 "/>
<path style=" stroke:none;fill-rule:nonzero;fill:rgb(40.510559%,15.028381%,41.687012%);fill-opacity:1;" d="M 28.371094 188.550781 L 36.113281 184.617188 L 27.785156 182.328125 Z M 20.8125 197.703125 L 19.90625 189.140625 L 20.945312 189.03125 C 21.082031 189.777344 21.242188 190.417969 21.453125 190.894531 C 21.609375 191.375 21.824219 191.585938 22.089844 191.585938 C 22.148438 191.585938 22.25 191.558594 22.355469 191.507812 C 22.464844 191.480469 22.59375 191.453125 22.675781 191.375 L 27.144531 189.21875 L 26.429688 181.957031 C 25.703125 181.742188 25.097656 181.558594 24.589844 181.476562 C 24.058594 181.34375 23.582031 181.210938 23.15625 181.160156 C 22.675781 181.054688 22.355469 181.054688 22.089844 180.996094 L 21.453125 180.996094 C 21.054688 181.054688 20.8125 181.34375 20.628906 182.007812 C 20.5 182.648438 20.441406 183.3125 20.46875 184.082031 L 19.433594 184.191406 L 18.628906 176.367188 L 19.667969 176.316406 C 19.726562 176.558594 19.804688 176.875 19.933594 177.273438 C 20.070312 177.621094 20.226562 177.914062 20.441406 178.125 C 20.707031 178.527344 21.023438 178.765625 21.320312 178.980469 C 21.609375 179.164062 22.039062 179.324219 22.570312 179.484375 C 25.28125 180.253906 28.316406 181.054688 31.667969 182.035156 C 35.019531 182.941406 38 183.765625 40.660156 184.507812 L 40.769531 185.652344 L 23.605469 194.378906 C 23.261719 194.511719 22.941406 194.726562 22.730469 194.9375 C 22.515625 195.152344 22.300781 195.441406 22.148438 195.816406 C 22.039062 196.054688 21.933594 196.347656 21.902344 196.695312 C 21.824219 197.070312 21.824219 197.359375 21.824219 197.625 Z M 20.8125 197.703125 "/>
<path style=" stroke:none;fill-rule:nonzero;fill:rgb(40.510559%,15.028381%,41.687012%);fill-opacity:1;" d="M 45.5 219.4375 C 45.445312 219.199219 45.285156 218.773438 45.019531 218.242188 C 44.757812 217.761719 44.484375 217.390625 44.304688 217.179688 C 44.011719 216.910156 43.480469 216.78125 42.761719 216.78125 C 42.09375 216.804688 41.191406 216.9375 40.152344 217.179688 L 25.28125 220.453125 L 25.019531 219.222656 L 38.929688 203.261719 L 28.449219 205.550781 C 27.277344 205.792969 26.402344 206.085938 25.8125 206.375 C 25.207031 206.699219 24.804688 207.015625 24.589844 207.363281 C 24.429688 207.628906 24.324219 208.132812 24.324219 208.824219 C 24.273438 209.597656 24.273438 210.074219 24.324219 210.234375 L 23.316406 210.5 L 21.453125 202.171875 L 22.464844 201.933594 C 22.570312 202.199219 22.78125 202.597656 23.078125 203.183594 C 23.367188 203.773438 23.582031 204.085938 23.765625 204.222656 C 24.113281 204.542969 24.535156 204.648438 25.125 204.648438 C 25.703125 204.648438 26.667969 204.542969 27.996094 204.222656 L 37.972656 202.011719 C 38.425781 201.90625 38.851562 201.75 39.277344 201.507812 C 39.648438 201.242188 39.941406 200.953125 40.125 200.660156 C 40.394531 200.257812 40.550781 199.671875 40.660156 199.085938 C 40.710938 198.421875 40.742188 197.917969 40.6875 197.574219 L 41.695312 197.359375 L 43 203.132812 L 30.019531 218.003906 L 39.648438 215.820312 C 40.875 215.554688 41.71875 215.316406 42.363281 214.992188 C 42.972656 214.726562 43.320312 214.4375 43.480469 214.066406 C 43.582031 213.773438 43.691406 213.269531 43.714844 212.65625 C 43.746094 212.015625 43.746094 211.511719 43.691406 211.246094 L 44.699219 210.980469 L 46.539062 219.253906 Z M 45.5 219.4375 "/>
<path style=" stroke:none;fill-rule:nonzero;fill:rgb(40.510559%,15.028381%,41.687012%);fill-opacity:1;" d="M 51.992188 231.648438 C 51.832031 231.410156 51.617188 231.117188 51.378906 230.824219 C 51.113281 230.535156 50.875 230.292969 50.65625 230.078125 C 50.367188 229.839844 50.101562 229.707031 49.8125 229.785156 C 49.542969 229.816406 49.226562 229.894531 48.957031 230.078125 L 38.261719 236.199219 C 37.707031 236.515625 37.066406 236.753906 36.296875 236.863281 C 35.550781 236.996094 34.808594 236.996094 34.0625 236.863281 C 33.210938 236.648438 32.414062 236.359375 31.667969 235.851562 C 30.976562 235.347656 30.363281 234.597656 29.828125 233.722656 C 29.058594 232.394531 28.761719 231.058594 29.058594 229.707031 C 29.378906 228.40625 30.125 227.390625 31.476562 226.644531 C 32.015625 226.332031 32.625 226.167969 33.261719 226.167969 C 33.847656 226.222656 34.328125 226.542969 34.699219 227.125 C 34.9375 227.660156 35.046875 228.082031 34.914062 228.5625 C 34.859375 229.042969 34.539062 229.414062 34.089844 229.707031 C 33.800781 229.867188 33.472656 229.972656 33.15625 230.027344 C 32.835938 230.078125 32.542969 230.078125 32.253906 230.078125 C 31.957031 230.050781 31.667969 230.050781 31.296875 230.050781 C 30.949219 230.027344 30.632812 230.050781 30.386719 230.078125 C 30.230469 230.402344 30.125 230.824219 30.125 231.355469 C 30.125 231.863281 30.308594 232.394531 30.652344 233.03125 C 31.03125 233.671875 31.507812 234.070312 31.988281 234.285156 C 32.492188 234.523438 33.050781 234.597656 33.636719 234.523438 C 34.167969 234.46875 34.808594 234.285156 35.5 233.992188 C 36.191406 233.671875 36.933594 233.351562 37.707031 232.898438 L 47.253906 227.390625 C 47.519531 227.207031 47.761719 227.019531 47.894531 226.859375 C 48.054688 226.621094 48.109375 226.332031 48.109375 225.929688 C 48.078125 225.585938 47.972656 225.183594 47.84375 224.734375 C 47.679688 224.304688 47.519531 223.988281 47.390625 223.695312 L 48.320312 223.191406 L 52.871094 231.117188 Z M 51.992188 231.648438 "/>
<path style=" stroke:none;fill-rule:nonzero;fill:rgb(40.510559%,15.028381%,41.687012%);fill-opacity:1;" d="M 44.675781 255.429688 L 39.003906 248.011719 L 39.808594 247.371094 C 40.019531 247.554688 40.289062 247.875 40.582031 248.25 C 40.925781 248.59375 41.191406 248.859375 41.351562 248.996094 C 41.671875 249.152344 41.933594 249.207031 42.199219 249.207031 C 42.46875 249.152344 42.761719 249.042969 43.050781 248.835938 L 55.019531 239.679688 C 55.289062 239.496094 55.503906 239.285156 55.636719 239.042969 C 55.742188 238.832031 55.742188 238.511719 55.636719 238.085938 C 55.527344 237.769531 55.398438 237.394531 55.214844 236.996094 C 55.019531 236.59375 54.863281 236.304688 54.703125 236.039062 L 55.527344 235.398438 L 61.195312 242.824219 L 60.34375 243.460938 C 60.1875 243.222656 59.917969 242.980469 59.625 242.691406 C 59.332031 242.371094 59.042969 242.132812 58.746094 241.945312 C 58.484375 241.730469 58.164062 241.652344 57.871094 241.703125 C 57.574219 241.757812 57.3125 241.886719 57.046875 242.078125 L 45.097656 251.226562 C 44.863281 251.414062 44.652344 251.625 44.539062 251.894531 C 44.433594 252.1875 44.410156 252.453125 44.484375 252.847656 C 44.570312 253.011719 44.730469 253.378906 44.914062 253.753906 C 45.128906 254.203125 45.316406 254.554688 45.5 254.792969 Z M 44.675781 255.429688 "/>
<path style=" stroke:none;fill-rule:nonzero;fill:rgb(40.510559%,15.028381%,41.687012%);fill-opacity:1;" d="M 80.402344 262.800781 C 80.1875 262.613281 79.816406 262.375 79.335938 262.082031 C 78.804688 261.816406 78.433594 261.652344 78.117188 261.601562 C 77.6875 261.546875 77.207031 261.707031 76.621094 262.109375 C 76.09375 262.5625 75.402344 263.144531 74.714844 263.917969 L 64.171875 274.929688 L 63.269531 274.054688 L 65.875 253.0625 L 58.484375 260.804688 C 57.65625 261.707031 57.074219 262.375 56.726562 262.988281 C 56.40625 263.546875 56.273438 264.074219 56.300781 264.445312 C 56.300781 264.796875 56.507812 265.246094 56.890625 265.859375 C 57.257812 266.472656 57.523438 266.867188 57.6875 267.03125 L 56.992188 267.773438 L 50.792969 261.867188 L 51.539062 261.152344 C 51.722656 261.339844 52.097656 261.546875 52.683594 261.84375 C 53.269531 262.160156 53.636719 262.347656 53.851562 262.347656 C 54.308594 262.375 54.757812 262.242188 55.234375 261.867188 C 55.6875 261.546875 56.40625 260.9375 57.3125 259.953125 L 64.445312 252.53125 C 64.707031 252.1875 64.972656 251.867188 65.183594 251.414062 C 65.367188 250.964844 65.457031 250.589844 65.425781 250.242188 C 65.398438 249.710938 65.238281 249.207031 64.972656 248.648438 C 64.679688 248.035156 64.445312 247.640625 64.171875 247.316406 L 64.863281 246.570312 L 69.175781 250.695312 L 66.730469 270.222656 L 73.539062 263.089844 C 74.363281 262.1875 74.976562 261.441406 75.296875 260.90625 C 75.609375 260.328125 75.71875 259.847656 75.71875 259.476562 C 75.609375 259.183594 75.402344 258.703125 75.082031 258.167969 C 74.761719 257.636719 74.5 257.238281 74.285156 256.972656 L 74.976562 256.230469 L 81.09375 262.054688 Z M 80.402344 262.800781 "/>
<path style=" stroke:none;fill-rule:nonzero;fill:rgb(40.510559%,15.028381%,41.687012%);fill-opacity:1;" d="M 92.160156 284.1875 C 91.949219 284.082031 91.625 283.945312 91.308594 283.761719 C 90.9375 283.601562 90.644531 283.496094 90.378906 283.441406 C 90.027344 283.441406 89.761719 283.46875 89.472656 283.625 C 89.261719 283.761719 89.023438 284 88.808594 284.320312 L 87.902344 285.652344 C 87.261719 286.628906 86.785156 287.273438 86.601562 287.621094 C 86.359375 287.992188 86.203125 288.230469 86.097656 288.46875 C 84.65625 288.230469 83.332031 287.914062 82.105469 287.429688 C 80.878906 286.925781 79.707031 286.394531 78.699219 285.730469 C 77.609375 284.929688 76.675781 284.027344 75.960938 282.9375 C 75.1875 281.820312 74.714844 280.648438 74.472656 279.402344 C 74.226562 278.042969 74.226562 276.710938 74.550781 275.328125 C 74.8125 273.945312 75.402344 272.507812 76.359375 271.179688 C 77.207031 269.847656 78.277344 268.785156 79.472656 267.960938 C 80.667969 267.136719 81.945312 266.578125 83.273438 266.285156 C 84.578125 265.992188 85.9375 265.992188 87.289062 266.253906 C 88.644531 266.523438 89.976562 267.082031 91.148438 267.878906 C 92.109375 268.542969 92.90625 269.238281 93.488281 269.984375 C 94.019531 270.699219 94.449219 271.367188 94.816406 272.082031 L 95.828125 271.578125 L 96.816406 272.269531 L 92.851562 278.359375 L 91.894531 277.667969 C 92.160156 276.871094 92.371094 276.152344 92.53125 275.300781 C 92.742188 274.476562 92.800781 273.707031 92.742188 272.878906 C 92.691406 272.109375 92.480469 271.367188 92.109375 270.699219 C 91.761719 270.035156 91.148438 269.394531 90.40625 268.863281 C 89.5 268.304688 88.644531 267.929688 87.71875 267.828125 C 86.785156 267.71875 85.832031 267.828125 84.871094 268.199219 C 83.914062 268.519531 82.957031 269.105469 82.050781 269.984375 C 81.09375 270.804688 80.1875 271.792969 79.335938 273.011719 C 78.621094 274.105469 78.058594 275.21875 77.664062 276.390625 C 77.265625 277.535156 77.101562 278.652344 77.101562 279.691406 C 77.128906 280.730469 77.371094 281.742188 77.847656 282.671875 C 78.324219 283.550781 79.046875 284.347656 79.980469 285.011719 C 80.71875 285.492188 81.410156 285.859375 82.15625 285.96875 C 82.902344 286.128906 83.488281 286.234375 83.859375 286.128906 C 84.234375 285.730469 84.558594 285.382812 84.84375 284.929688 C 85.136719 284.507812 85.402344 284.132812 85.585938 283.871094 L 86.203125 282.914062 C 86.46875 282.566406 86.628906 282.246094 86.683594 281.925781 C 86.785156 281.609375 86.757812 281.261719 86.519531 280.941406 C 86.308594 280.648438 86.046875 280.277344 85.644531 279.933594 C 85.191406 279.558594 84.871094 279.265625 84.605469 279.132812 L 85.191406 278.175781 L 92.769531 283.308594 Z M 92.160156 284.1875 "/>
<path style=" stroke:none;fill-rule:nonzero;fill:rgb(40.510559%,15.028381%,41.687012%);fill-opacity:1;" d="M 144.300781 287.566406 C 144.03125 287.566406 143.660156 287.621094 143.128906 287.75 C 142.597656 287.859375 142.171875 287.992188 141.828125 288.203125 C 141.480469 288.441406 141.265625 288.921875 141.15625 289.617188 C 141.027344 290.304688 140.949219 291.15625 140.949219 292.167969 L 140.949219 301.210938 C 140.949219 302.332031 140.707031 303.339844 140.230469 304.191406 C 139.726562 305.070312 139.113281 305.761719 138.34375 306.320312 C 137.59375 306.824219 136.769531 307.25 135.890625 307.433594 C 135.042969 307.703125 134.246094 307.808594 133.445312 307.808594 C 132.21875 307.808594 131.078125 307.648438 130.117188 307.304688 C 129.136719 306.984375 128.339844 306.535156 127.644531 305.972656 C 127.007812 305.414062 126.503906 304.804688 126.210938 304.054688 C 125.839844 303.339844 125.679688 302.597656 125.679688 301.824219 L 125.679688 289.589844 C 125.679688 289.1875 125.625 288.921875 125.519531 288.683594 C 125.414062 288.441406 125.171875 288.230469 124.828125 288.070312 C 124.613281 287.914062 124.292969 287.777344 123.894531 287.699219 C 123.496094 287.621094 123.179688 287.566406 122.964844 287.566406 L 122.964844 286.503906 L 131.585938 286.503906 L 131.585938 287.566406 C 131.316406 287.566406 130.972656 287.589844 130.570312 287.671875 C 130.148438 287.75 129.855469 287.859375 129.667969 287.914062 C 129.296875 287.992188 129.082031 288.230469 129.003906 288.46875 C 128.871094 288.789062 128.820312 289.109375 128.820312 289.425781 L 128.820312 300.867188 C 128.820312 301.398438 128.871094 302.011719 129.003906 302.597656 C 129.136719 303.207031 129.378906 303.765625 129.722656 304.328125 C 130.117188 304.855469 130.625 305.28125 131.292969 305.601562 C 131.957031 305.949219 132.804688 306.160156 133.984375 306.160156 C 135.042969 306.160156 135.949219 305.949219 136.691406 305.601562 C 137.386719 305.28125 137.992188 304.855469 138.390625 304.296875 C 138.765625 303.765625 139.085938 303.207031 139.269531 302.621094 C 139.402344 302.039062 139.507812 301.503906 139.507812 300.890625 L 139.507812 292.40625 C 139.507812 291.289062 139.402344 290.410156 139.269531 289.71875 C 139.085938 289.054688 138.871094 288.578125 138.605469 288.363281 C 138.234375 288.125 137.753906 287.933594 137.195312 287.777344 C 136.578125 287.671875 136.132812 287.566406 135.8125 287.566406 L 135.8125 286.503906 L 144.300781 286.503906 Z M 144.300781 287.566406 "/>
<path style=" stroke:none;fill-rule:nonzero;fill:rgb(40.510559%,15.028381%,41.687012%);fill-opacity:1;" d="M 168.425781 277.03125 C 168.1875 277.191406 167.8125 277.402344 167.394531 277.777344 C 166.90625 278.175781 166.59375 278.46875 166.433594 278.707031 C 166.21875 279.054688 166.195312 279.558594 166.378906 280.222656 C 166.515625 280.941406 166.808594 281.765625 167.226562 282.722656 L 173.320312 296.664062 L 172.125 297.222656 L 153.824219 286.660156 L 158.105469 296.476562 C 158.554688 297.570312 158.980469 298.394531 159.410156 298.898438 C 159.808594 299.484375 160.210938 299.773438 160.582031 299.882812 C 160.898438 300.015625 161.40625 300.015625 162.09375 299.882812 C 162.816406 299.804688 163.292969 299.695312 163.503906 299.617188 L 163.929688 300.570312 L 156.085938 304.007812 L 155.660156 303.019531 C 155.925781 302.914062 156.269531 302.621094 156.800781 302.195312 C 157.28125 301.820312 157.574219 301.503906 157.679688 301.347656 C 157.890625 300.972656 157.921875 300.464844 157.8125 299.882812 C 157.707031 299.324219 157.386719 298.472656 156.855469 297.167969 L 152.757812 287.804688 C 152.546875 287.40625 152.332031 286.980469 152.015625 286.660156 C 151.691406 286.339844 151.378906 286.101562 151.003906 285.972656 C 150.578125 285.859375 150.015625 285.730469 149.40625 285.78125 C 148.742188 285.835938 148.234375 285.917969 147.890625 286.078125 L 147.492188 285.09375 L 152.917969 282.722656 L 169.941406 292.566406 L 166.007812 283.496094 C 165.527344 282.40625 165.074219 281.582031 164.675781 281.023438 C 164.273438 280.460938 163.902344 280.167969 163.53125 280.117188 C 163.1875 280.011719 162.757812 280.011719 162.09375 280.117188 C 161.484375 280.222656 161.003906 280.355469 160.6875 280.460938 L 160.289062 279.476562 L 168.027344 276.152344 Z M 168.425781 277.03125 "/>
<path style=" stroke:none;fill-rule:nonzero;fill:rgb(40.510559%,15.028381%,41.687012%);fill-opacity:1;" d="M 189.226562 289.054688 L 180.824219 293.152344 L 180.371094 292.21875 C 180.613281 292.113281 180.929688 291.875 181.382812 291.664062 C 181.808594 291.398438 182.101562 291.15625 182.230469 291.023438 C 182.449219 290.734375 182.605469 290.464844 182.632812 290.199219 C 182.65625 289.933594 182.605469 289.617188 182.449219 289.324219 L 175.792969 275.808594 C 175.691406 275.488281 175.5 275.21875 175.316406 275.0625 C 175.105469 274.929688 174.785156 274.875 174.359375 274.902344 C 174.042969 274.929688 173.667969 275.007812 173.242188 275.0625 C 172.761719 275.195312 172.441406 275.300781 172.179688 275.410156 L 171.695312 274.476562 L 180.132812 270.382812 L 180.585938 271.3125 C 180.320312 271.445312 180.027344 271.660156 179.652344 271.871094 C 179.308594 272.082031 178.984375 272.324219 178.773438 272.585938 C 178.507812 272.828125 178.351562 273.175781 178.351562 273.46875 C 178.351562 273.703125 178.453125 273.996094 178.558594 274.292969 L 185.160156 287.804688 C 185.292969 288.097656 185.480469 288.335938 185.742188 288.46875 C 185.957031 288.65625 186.277344 288.707031 186.648438 288.683594 C 186.863281 288.683594 187.207031 288.628906 187.660156 288.46875 C 188.089844 288.363281 188.484375 288.230469 188.777344 288.121094 Z M 189.226562 289.054688 "/>
<path style=" stroke:none;fill-rule:nonzero;fill:rgb(40.510559%,15.028381%,41.687012%);fill-opacity:1;" d="M 199.421875 256.414062 C 199.234375 256.625 198.988281 256.867188 198.777344 257.160156 C 198.566406 257.453125 198.433594 257.796875 198.355469 258.039062 C 198.222656 258.410156 198.140625 258.726562 198.222656 259.128906 C 198.277344 259.476562 198.355469 259.929688 198.460938 260.375 C 198.9375 262.027344 199.683594 264.53125 200.695312 267.878906 C 201.757812 271.261719 202.824219 274.769531 203.941406 278.441406 L 203.007812 279.1875 C 199.550781 277.140625 196.226562 275.167969 193.03125 273.199219 C 189.789062 271.285156 187.632812 270.011719 186.492188 269.316406 C 186.222656 269.1875 185.929688 269.050781 185.613281 268.972656 C 185.316406 268.945312 185 268.945312 184.628906 268.972656 C 184.308594 269.023438 183.988281 269.105469 183.699219 269.234375 C 183.40625 269.371094 183.136719 269.527344 182.898438 269.636719 L 182.234375 268.839844 L 188.9375 263.492188 L 189.628906 264.289062 C 189.042969 264.796875 188.617188 265.246094 188.296875 265.621094 C 187.984375 266.019531 187.925781 266.3125 188.089844 266.523438 C 188.140625 266.628906 188.25 266.734375 188.351562 266.789062 C 188.484375 266.894531 188.566406 266.976562 188.671875 267.03125 C 189.523438 267.558594 190.960938 268.359375 192.953125 269.554688 C 194.953125 270.808594 197.765625 272.453125 201.441406 274.609375 C 200.851562 272.75 200.214844 270.539062 199.445312 268.015625 C 198.644531 265.488281 198.089844 263.78125 197.765625 262.851562 C 197.476562 261.921875 197.234375 261.363281 197.078125 261.097656 C 196.890625 260.777344 196.734375 260.539062 196.625 260.351562 C 196.492188 260.164062 196.277344 260.085938 196.011719 260.109375 C 195.75 260.109375 195.480469 260.164062 195.160156 260.300781 C 194.84375 260.433594 194.523438 260.589844 194.207031 260.777344 C 193.941406 260.9375 193.671875 261.097656 193.40625 261.28125 L 192.71875 260.457031 L 198.777344 255.644531 Z M 199.421875 256.414062 "/>
<path style=" stroke:none;fill-rule:nonzero;fill:rgb(40.510559%,15.028381%,41.687012%);fill-opacity:1;" d="M 222.636719 249.660156 L 227.082031 253.859375 L 216.019531 267.109375 L 215.21875 266.472656 C 215.40625 266.230469 215.617188 265.886719 215.914062 265.488281 C 216.152344 265.058594 216.3125 264.796875 216.335938 264.582031 C 216.441406 264.289062 216.414062 264.027344 216.335938 263.78125 C 216.230469 263.519531 216.019531 263.277344 215.75 263.066406 L 204.289062 253.460938 C 204.046875 253.25 203.785156 253.113281 203.511719 253.0625 C 203.273438 252.984375 202.984375 253.011719 202.617188 253.171875 C 202.34375 253.277344 202.078125 253.515625 201.703125 253.753906 C 201.332031 254.046875 201.070312 254.285156 200.851562 254.472656 L 200.082031 253.859375 L 210.378906 241.464844 L 214.210938 244.683594 L 213.515625 245.53125 C 212.828125 245.191406 211.921875 245.003906 210.910156 245.003906 C 209.816406 244.972656 209.074219 245.160156 208.648438 245.53125 C 208.410156 245.746094 208.195312 246.011719 207.878906 246.28125 C 207.609375 246.570312 207.292969 246.972656 206.917969 247.371094 L 204.894531 249.898438 L 211.175781 255.164062 L 212.722656 253.382812 C 213.171875 252.824219 213.492188 252.34375 213.625 252 C 213.730469 251.625 213.730469 251.226562 213.625 250.855469 C 213.570312 250.484375 213.382812 250.109375 213.09375 249.660156 C 212.828125 249.257812 212.5625 248.890625 212.289062 248.566406 L 212.984375 247.742188 L 219.210938 252.957031 L 218.542969 253.753906 C 218.144531 253.542969 217.695312 253.277344 217.191406 253.089844 C 216.710938 252.878906 216.285156 252.769531 215.964844 252.742188 C 215.484375 252.742188 215.058594 252.847656 214.742188 253.089844 C 214.371094 253.277344 214.027344 253.648438 213.625 254.179688 L 212.078125 255.9375 L 216.921875 259.929688 C 217.402344 260.351562 217.773438 260.617188 218.121094 260.777344 C 218.464844 260.960938 218.785156 260.960938 219.105469 260.9375 C 219.371094 260.855469 219.714844 260.644531 220.058594 260.351562 C 220.328125 260.058594 220.753906 259.550781 221.308594 258.917969 C 221.472656 258.675781 221.765625 258.410156 222.085938 257.957031 C 222.453125 257.613281 222.71875 257.238281 222.902344 256.921875 C 223.148438 256.625 223.308594 256.226562 223.492188 255.859375 C 223.675781 255.535156 223.730469 255.214844 223.675781 255.003906 C 223.675781 254.339844 223.414062 253.542969 222.964844 252.503906 C 222.5625 251.546875 222.214844 250.882812 221.976562 250.457031 Z M 222.636719 249.660156 "/>
<path style=" stroke:none;fill-rule:nonzero;fill:rgb(40.510559%,15.028381%,41.687012%);fill-opacity:1;" d="M 222.589844 229.652344 C 221.472656 229.042969 220.433594 228.882812 219.421875 229.175781 C 218.464844 229.464844 217.640625 230.214844 217.03125 231.355469 L 215.808594 233.5625 L 223.675781 237.769531 L 224.582031 236.089844 C 225.222656 234.917969 225.382812 233.722656 225.0625 232.523438 C 224.71875 231.304688 223.894531 230.398438 222.589844 229.652344 M 239.878906 230.292969 L 237.21875 235.132812 C 234.90625 235.347656 232.878906 235.53125 231.179688 235.773438 C 229.476562 235.929688 227.667969 236.199219 225.804688 236.515625 L 224.769531 238.382812 L 230.542969 241.519531 C 230.863281 241.675781 231.15625 241.785156 231.394531 241.8125 C 231.714844 241.8125 231.980469 241.730469 232.273438 241.492188 C 232.429688 241.355469 232.617188 241.09375 232.878906 240.75 C 233.148438 240.425781 233.359375 240.082031 233.496094 239.789062 L 234.425781 240.292969 L 230.222656 248.035156 L 229.320312 247.53125 C 229.425781 247.316406 229.53125 247 229.714844 246.570312 C 229.902344 246.175781 229.957031 245.910156 229.980469 245.722656 C 230.011719 245.402344 229.957031 245.160156 229.792969 244.894531 C 229.636719 244.65625 229.398438 244.46875 229.105469 244.257812 L 215.855469 237.078125 C 215.589844 236.96875 215.273438 236.863281 215.003906 236.808594 C 214.714844 236.757812 214.421875 236.863281 214.152344 237.078125 C 213.945312 237.289062 213.730469 237.554688 213.488281 237.847656 C 213.226562 238.140625 212.984375 238.40625 212.875 238.644531 L 211.945312 238.191406 L 216.546875 229.707031 C 216.972656 228.933594 217.402344 228.21875 217.933594 227.710938 C 218.464844 227.101562 219.050781 226.621094 219.714844 226.222656 C 220.328125 225.875 221.019531 225.71875 221.765625 225.691406 C 222.453125 225.691406 223.226562 225.847656 223.996094 226.300781 C 224.71875 226.703125 225.277344 227.15625 225.695312 227.660156 C 226.128906 228.136719 226.417969 228.695312 226.601562 229.359375 C 226.765625 229.945312 226.816406 230.585938 226.816406 231.277344 C 226.765625 231.914062 226.65625 232.660156 226.5 233.40625 C 228.203125 233.164062 229.636719 232.953125 230.753906 232.820312 C 231.871094 232.660156 233.253906 232.445312 234.90625 232.234375 C 235.621094 232.128906 236.210938 231.996094 236.582031 231.859375 C 237.03125 231.648438 237.351562 231.492188 237.671875 231.25 C 237.9375 231.058594 238.148438 230.824219 238.417969 230.535156 C 238.652344 230.234375 238.8125 229.972656 238.949219 229.785156 Z M 239.878906 230.292969 "/>
<path style=" stroke:none;fill-rule:nonzero;fill:rgb(40.510559%,15.028381%,41.687012%);fill-opacity:1;" d="M 234.535156 212.546875 C 235.117188 212.230469 235.703125 212.070312 236.316406 212.019531 C 236.953125 211.964844 237.621094 212.019531 238.363281 212.230469 C 240.171875 212.65625 241.449219 213.695312 242.25 215.316406 C 243.042969 216.9375 243.203125 218.695312 242.699219 220.664062 C 242.460938 221.511719 242.089844 222.417969 241.605469 223.242188 C 241.074219 224.121094 240.542969 224.734375 239.957031 225.289062 L 240.839844 226.167969 L 240.542969 227.335938 L 233.628906 225.71875 L 233.949219 224.570312 C 234.851562 224.570312 235.648438 224.46875 236.445312 224.308594 C 237.222656 224.203125 237.9375 223.960938 238.683594 223.617188 C 239.375 223.242188 239.957031 222.761719 240.464844 222.234375 C 240.972656 221.648438 241.3125 220.953125 241.554688 220.050781 C 241.710938 219.410156 241.796875 218.773438 241.742188 218.292969 C 241.710938 217.738281 241.554688 217.3125 241.3125 216.9375 C 241.074219 216.511719 240.761719 216.195312 240.4375 215.925781 C 240.015625 215.6875 239.535156 215.476562 239.003906 215.316406 C 238.203125 215.15625 237.378906 215.15625 236.582031 215.417969 C 235.753906 215.714844 235.066406 216.273438 234.480469 217.070312 C 234.054688 217.628906 233.601562 218.242188 233.097656 218.988281 C 232.617188 219.652344 232.140625 220.316406 231.714844 220.847656 C 230.917969 221.832031 230.039062 222.496094 229.027344 222.921875 C 228.039062 223.351562 226.871094 223.375 225.570312 223.054688 C 224.796875 222.847656 224.132812 222.472656 223.519531 221.992188 C 222.964844 221.488281 222.484375 220.953125 222.136719 220.207031 C 221.765625 219.542969 221.554688 218.773438 221.472656 218.003906 C 221.394531 217.152344 221.445312 216.351562 221.660156 215.527344 C 221.921875 214.621094 222.242188 213.800781 222.722656 213.160156 C 223.199219 212.496094 223.679688 211.910156 224.265625 211.457031 L 223.414062 210.578125 L 223.679688 209.410156 L 230.410156 211.058594 L 230.117188 212.230469 C 229.316406 212.230469 228.523438 212.253906 227.75 212.335938 C 226.976562 212.414062 226.289062 212.574219 225.589844 212.84375 C 224.929688 213.109375 224.398438 213.503906 223.894531 214.015625 C 223.414062 214.519531 223.09375 215.15625 222.828125 216.003906 C 222.609375 216.9375 222.722656 217.789062 223.09375 218.535156 C 223.519531 219.304688 224.15625 219.8125 224.957031 220.050781 C 225.832031 220.289062 226.601562 220.238281 227.296875 219.996094 C 227.988281 219.757812 228.601562 219.253906 229.160156 218.613281 C 229.660156 218.003906 230.117188 217.390625 230.542969 216.777344 C 230.96875 216.164062 231.394531 215.609375 231.820312 215.050781 C 232.191406 214.570312 232.617188 214.066406 233.070312 213.636719 C 233.523438 213.214844 234 212.8125 234.535156 212.546875 "/>
<path style=" stroke:none;fill-rule:nonzero;fill:rgb(40.510559%,15.028381%,41.687012%);fill-opacity:1;" d="M 246.875 198.769531 L 245.601562 208.03125 L 244.5625 207.890625 C 244.589844 207.574219 244.613281 207.230469 244.640625 206.722656 C 244.691406 206.21875 244.667969 205.898438 244.613281 205.632812 C 244.535156 205.339844 244.378906 205.074219 244.1875 204.882812 C 244.003906 204.703125 243.683594 204.59375 243.308594 204.539062 L 228.382812 202.546875 C 228.039062 202.519531 227.777344 202.546875 227.539062 202.546875 C 227.296875 202.652344 227.027344 202.867188 226.847656 203.261719 C 226.710938 203.53125 226.527344 203.847656 226.394531 204.300781 C 226.234375 204.703125 226.074219 205.074219 226.023438 205.367188 L 225.007812 205.234375 L 226.289062 195.976562 L 227.296875 196.109375 C 227.273438 196.375 227.273438 196.746094 227.273438 197.171875 C 227.273438 197.625 227.296875 197.972656 227.351562 198.316406 C 227.433594 198.664062 227.585938 198.925781 227.828125 199.117188 C 228.066406 199.273438 228.363281 199.378906 228.675781 199.378906 L 243.578125 201.457031 C 243.898438 201.507812 244.160156 201.457031 244.425781 201.375 C 244.722656 201.273438 244.964844 201.027344 245.121094 200.683594 C 245.226562 200.527344 245.386719 200.203125 245.519531 199.78125 C 245.707031 199.328125 245.785156 198.925781 245.835938 198.609375 Z M 246.875 198.769531 "/>
<path style=" stroke:none;fill-rule:nonzero;fill:rgb(40.510559%,15.028381%,41.687012%);fill-opacity:1;" d="M 233.679688 174.136719 L 233.628906 175.117188 C 233.253906 175.203125 232.832031 175.359375 232.375 175.574219 C 231.871094 175.785156 231.394531 176.027344 230.964844 176.265625 C 230.542969 176.558594 230.117188 176.851562 229.792969 177.21875 C 229.425781 177.539062 229.214844 177.859375 229.160156 178.207031 C 229.105469 178.5 229.054688 178.871094 229 179.324219 C 229 179.777344 228.949219 180.226562 228.949219 180.601562 L 228.890625 181.476562 L 245.519531 182.0625 C 245.835938 182.0625 246.132812 182.035156 246.398438 181.902344 C 246.71875 181.796875 246.875 181.53125 247.035156 181.210938 C 247.140625 181.054688 247.25 180.703125 247.40625 180.121094 C 247.511719 179.566406 247.59375 179.164062 247.621094 178.84375 L 248.660156 178.871094 L 248.257812 188.6875 L 247.25 188.636719 C 247.25 188.394531 247.191406 187.914062 247.167969 187.382812 C 247.140625 186.796875 247.085938 186.449219 246.980469 186.214844 C 246.875 185.921875 246.71875 185.625 246.476562 185.46875 C 246.238281 185.308594 245.914062 185.226562 245.519531 185.199219 L 228.785156 184.5625 L 228.734375 185.441406 L 228.734375 186.558594 C 228.734375 186.984375 228.734375 187.4375 228.785156 187.808594 C 228.8125 188.15625 229 188.5 229.316406 188.871094 C 229.636719 189.21875 230.039062 189.5625 230.460938 189.855469 C 230.859375 190.152344 231.339844 190.464844 231.820312 190.707031 C 232.300781 190.949219 232.726562 191.105469 233.046875 191.1875 L 232.992188 192.226562 L 227.351562 192.015625 L 228.039062 173.894531 Z M 233.679688 174.136719 "/>
<path style=" stroke:none;fill-rule:nonzero;fill:rgb(40.510559%,15.028381%,41.687012%);fill-opacity:1;" d="M 229.371094 151.445312 C 229.398438 151.574219 229.476562 151.867188 229.53125 152.246094 C 229.691406 152.585938 229.792969 152.878906 229.902344 153.015625 C 230.117188 153.414062 230.300781 153.652344 230.410156 153.8125 C 230.542969 153.945312 230.890625 154.210938 231.394531 154.582031 C 232.484375 155.410156 233.550781 156.101562 234.640625 156.789062 C 235.730469 157.429688 237.136719 158.226562 238.789062 159.238281 C 239.429688 159.632812 239.929688 159.90625 240.308594 159.984375 C 240.703125 160.171875 241.238281 160.222656 241.953125 160.222656 L 245.914062 160.273438 C 246.269531 160.273438 246.613281 160.222656 246.875 160.0625 C 247.085938 159.929688 247.300781 159.695312 247.464844 159.398438 C 247.570312 159.160156 247.671875 158.789062 247.777344 158.28125 C 247.886719 157.746094 247.964844 157.375 247.992188 157.035156 L 249.058594 157.035156 L 248.847656 166.765625 L 247.835938 166.710938 C 247.835938 166.449219 247.777344 166.078125 247.726562 165.515625 C 247.699219 164.988281 247.621094 164.609375 247.542969 164.375 C 247.40625 164 247.191406 163.789062 246.980469 163.628906 C 246.71875 163.46875 246.398438 163.414062 246.027344 163.414062 L 240.972656 163.363281 C 240.808594 163.308594 240.542969 163.414062 240.117188 163.601562 C 239.691406 163.789062 239.214844 163.972656 238.734375 164.238281 C 237.566406 164.824219 236.316406 165.464844 235.011719 166.128906 C 233.679688 166.824219 232.535156 167.433594 231.578125 167.964844 C 231.019531 168.230469 230.597656 168.496094 230.300781 168.816406 C 230.011719 169.03125 229.792969 169.292969 229.53125 169.613281 C 229.398438 169.851562 229.265625 170.144531 229.214844 170.460938 C 229.105469 170.785156 229.054688 171.078125 229.027344 171.316406 L 228.015625 171.316406 L 228.148438 162.429688 L 229.214844 162.429688 C 229.214844 163.441406 229.265625 164.164062 229.371094 164.609375 C 229.476562 164.988281 229.640625 165.199219 229.851562 165.222656 C 229.902344 165.222656 230.011719 165.199219 230.117188 165.144531 C 230.273438 165.09375 230.492188 164.988281 230.703125 164.90625 C 230.964844 164.769531 231.285156 164.609375 231.578125 164.453125 C 231.925781 164.292969 232.246094 164.132812 232.535156 163.949219 C 233.417969 163.496094 234.320312 163.070312 235.167969 162.589844 C 236.027344 162.164062 237.164062 161.523438 238.574219 160.785156 C 236.128906 159.238281 234.238281 158.015625 232.832031 157.191406 C 231.5 156.367188 230.675781 155.964844 230.410156 155.964844 C 230.167969 155.964844 229.980469 156.019531 229.851562 156.207031 C 229.714844 156.3125 229.640625 156.550781 229.53125 156.816406 C 229.425781 157.109375 229.371094 157.40625 229.347656 157.746094 C 229.316406 158.070312 229.316406 158.414062 229.265625 158.679688 L 228.203125 158.679688 L 228.363281 151.445312 Z M 229.371094 151.445312 "/>
<path style=" stroke:none;fill-rule:nonzero;fill:rgb(40.510559%,15.028381%,41.687012%);fill-opacity:1;" d="M 126.234375 237.289062 C 125.464844 237.289062 124.828125 237.605469 124.246094 238.246094 C 123.652344 238.855469 123.390625 239.683594 123.390625 240.691406 C 123.390625 241.570312 123.652344 242.316406 124.191406 242.875 C 124.71875 243.4375 125.414062 243.699219 126.210938 243.699219 C 127.007812 243.699219 127.644531 243.4375 128.179688 242.875 C 128.710938 242.316406 128.949219 241.519531 128.949219 240.535156 C 128.949219 239.546875 128.710938 238.777344 128.121094 238.191406 C 127.644531 237.605469 126.984375 237.289062 126.234375 237.289062 "/>
<path style=" stroke:none;fill-rule:nonzero;fill:rgb(40.510559%,15.028381%,41.687012%);fill-opacity:1;" d="M 139.351562 237.289062 C 138.605469 237.289062 137.964844 237.605469 137.464844 238.324219 C 136.902344 239.152344 136.582031 240.746094 136.582031 243.085938 C 136.582031 245.402344 136.851562 246.890625 137.386719 247.660156 C 137.964844 248.460938 138.605469 248.835938 139.402344 248.835938 C 140.152344 248.835938 140.839844 248.460938 141.398438 247.660156 C 141.929688 246.890625 142.222656 245.402344 142.222656 243.085938 C 142.222656 240.746094 141.929688 239.230469 141.398438 238.460938 C 140.839844 237.710938 140.152344 237.289062 139.351562 237.289062 "/>
<path style=" stroke:none;fill-rule:nonzero;fill:rgb(40.510559%,15.028381%,41.687012%);fill-opacity:1;" d="M 142.839844 210.792969 L 143.289062 214.519531 L 127.167969 214.519531 L 127.644531 210.792969 L 77.101562 210.792969 L 83.410156 203.050781 C 88.753906 202.757812 99.074219 201.402344 107.910156 198.101562 C 125.09375 191.664062 135.523438 200.5 135.523438 200.5 C 143.738281 193.609375 154.0625 195.042969 163.613281 198.558594 C 172.601562 201.855469 186.359375 202.867188 186.359375 202.867188 L 192.285156 210.792969 Z M 157.0625 250.003906 L 147.757812 250.003906 C 147.757812 249.605469 147.8125 249.152344 147.972656 248.835938 C 148.210938 248.195312 148.605469 247.53125 149.140625 246.945312 C 149.644531 246.304688 150.394531 245.640625 151.378906 244.792969 C 152.890625 243.511719 153.925781 242.582031 154.484375 241.8125 C 155.019531 241.089844 155.3125 240.425781 155.3125 239.738281 C 155.3125 239.070312 155.046875 238.488281 154.542969 238.035156 C 154.0625 237.554688 153.425781 237.289062 152.625 237.289062 C 151.800781 237.289062 151.132812 237.554688 150.628906 238.0625 C 150.152344 238.566406 149.886719 239.257812 149.886719 240.105469 L 148.078125 239.953125 C 148.234375 238.644531 148.664062 237.605469 149.457031 236.917969 C 150.257812 236.199219 151.320312 235.90625 152.683594 235.90625 C 154.035156 235.90625 155.101562 236.25 155.871094 236.996094 C 156.664062 237.769531 157.0625 238.699219 157.0625 239.789062 C 157.0625 240.320312 156.960938 240.933594 156.71875 241.464844 C 156.484375 241.996094 156.085938 242.582031 155.574219 243.195312 C 155.046875 243.78125 154.140625 244.578125 152.890625 245.640625 C 151.859375 246.496094 151.191406 247.128906 150.898438 247.398438 C 150.628906 247.742188 150.367188 248.035156 150.179688 248.378906 L 157.0625 248.378906 Z M 143.476562 247.050781 C 143.128906 248.0625 142.648438 248.890625 141.960938 249.390625 C 141.292969 249.953125 140.414062 250.246094 139.402344 250.246094 C 138.050781 250.246094 136.957031 249.765625 136.1875 248.78125 C 135.257812 247.636719 134.777344 245.722656 134.777344 243.085938 C 134.777344 241.382812 134.988281 240.054688 135.304688 239.070312 C 135.65625 238.035156 136.160156 237.261719 136.851562 236.753906 C 137.515625 236.144531 138.390625 235.90625 139.402344 235.90625 C 140.152344 235.90625 140.816406 236.039062 141.402344 236.332031 C 141.960938 236.59375 142.441406 237.078125 142.808594 237.632812 C 143.183594 238.246094 143.449219 238.910156 143.660156 239.738281 C 143.871094 240.558594 143.980469 241.675781 143.980469 243.085938 C 143.980469 244.710938 143.792969 246.066406 143.476562 247.050781 M 130.308594 246.972656 C 129.882812 248.035156 129.296875 248.859375 128.550781 249.390625 C 127.75 249.953125 126.847656 250.246094 125.839844 250.246094 C 124.71875 250.246094 123.820312 249.953125 123.125 249.308594 C 122.4375 248.726562 122.003906 247.875 121.851562 246.730469 L 123.496094 246.570312 C 123.652344 247.371094 123.949219 247.953125 124.347656 248.300781 C 124.71875 248.703125 125.253906 248.835938 125.863281 248.835938 C 126.367188 248.835938 126.847656 248.703125 127.273438 248.460938 C 127.644531 248.222656 127.964844 247.90625 128.226562 247.476562 C 128.5 247.050781 128.710938 246.519531 128.871094 245.851562 C 129.058594 245.160156 129.136719 244.46875 129.136719 243.726562 L 129.136719 243.328125 C 128.789062 243.9375 128.339844 244.390625 127.699219 244.710938 C 127.117188 245.054688 126.449219 245.242188 125.785156 245.242188 C 124.613281 245.242188 123.632812 244.792969 122.832031 243.964844 C 122.003906 243.085938 121.578125 241.996094 121.578125 240.613281 C 121.578125 239.230469 122.003906 238.0625 122.859375 237.183594 C 123.710938 236.332031 124.773438 235.90625 125.992188 235.90625 C 126.953125 235.90625 127.75 236.144531 128.550781 236.59375 C 129.296875 237.078125 129.882812 237.792969 130.308594 238.753906 C 130.625 239.65625 130.867188 240.933594 130.867188 242.6875 C 130.867188 244.46875 130.625 245.910156 130.308594 246.972656 M 114.929688 250.003906 L 113.203125 250.003906 L 113.203125 239.015625 C 112.777344 239.46875 112.214844 239.789062 111.527344 240.132812 C 110.890625 240.585938 110.304688 240.878906 109.742188 241.089844 L 109.742188 239.46875 C 110.726562 238.964844 111.527344 238.40625 112.273438 237.769531 C 113.011719 237.078125 113.515625 236.488281 113.8125 235.90625 L 114.929688 235.90625 Z M 89.261719 194.617188 C 100.542969 188.765625 111.84375 182.332031 120.675781 173.816406 C 114.824219 175.253906 110.140625 175.414062 105.300781 175.359375 C 106.101562 174.082031 107.425781 173.285156 108.492188 172.25 C 115.941406 165.277344 124.292969 158.628906 128.339844 148.066406 C 125.601562 148.996094 122.164062 149.769531 118.46875 149.769531 C 125.730469 140.457031 131.453125 129.527344 134.484375 116.039062 L 134.910156 116.039062 C 137.890625 129.578125 143.714844 140.378906 150.949219 149.769531 C 147.703125 149.554688 144.988281 149.421875 141.242188 147.960938 C 141.402344 149.53125 142.222656 151.015625 142.921875 152.375 C 146.507812 158.972656 152.277344 164.210938 157.65625 169.292969 C 159.835938 171.316406 162.175781 173.101562 164.09375 175.359375 C 158.132812 175.890625 155.417969 175.414062 148.878906 173.679688 C 151.003906 176.210938 153.796875 178.074219 156.375 180.121094 C 163.402344 185.867188 171.800781 190.152344 180.261719 194.617188 C 180.929688 194.964844 181.96875 195.203125 182.230469 196.082031 C 175.214844 197.070312 167.414062 196.535156 159.835938 194.113281 C 150.578125 190.921875 141.800781 190.734375 135.304688 196.800781 C 128.074219 190.972656 120.917969 190.894531 109.34375 193.953125 C 102.746094 196.003906 94.128906 196.933594 87.183594 196.082031 C 87.425781 195.125 88.539062 194.992188 89.261719 194.617188 M 217.238281 100.371094 L 51.195312 100.371094 C 50.980469 100.394531 51.035156 100.660156 50.929688 100.824219 C 50.765625 122.15625 51.007812 144.128906 50.929688 164.90625 C 50.765625 185.949219 53.824219 204.96875 60.664062 219.941406 C 67.367188 234.761719 78.382812 245.425781 90.882812 254.390625 C 103.601562 263.414062 119.507812 268.25 134.191406 275.835938 C 148.820312 268.199219 164.675781 263.4375 177.339844 254.207031 C 189.839844 245.160156 201.148438 234.789062 207.773438 219.8125 C 214.371094 204.78125 217.34375 186.265625 217.34375 164.613281 C 217.34375 143.703125 217.507812 121.519531 217.238281 100.371094 "/>
</g>
</svg>
